<svg width="97" height="87" viewBox="0 0 97 87" fill="none" xmlns="http://www.w3.org/2000/svg">
<path d="M6.92857 18.5328V5.71563H23.0365V11.5473L6.92857 18.5328ZM29.9641 0H0V40.4144H6.92857V24.4794L29.9651 15.415V0H29.9641Z" fill="black"/>
<path d="M40.1874 18.5908V5.94662H55.6025V11.1423L40.1874 18.5898V18.5908ZM61.3761 0H34.2988V40.4144H61.3761V34.4678H40.1874V24.4794L61.3761 15.299V0Z" fill="black"/>
<path d="M97.0003 0H65.0723V40.3564H70.9899V5.83164H78.078V40.3564H83.8775L83.8195 5.83164H91.0246L91.0837 40.3564H97.0003V0Z" fill="black"/>
<path d="M6.81256 81.0018V67.0877L22.7476 75.1712V81.0029H6.81256V81.0018ZM6.81256 62.064V51.7877H22.7476V57.5033L6.81256 62.065V62.064ZM29.5601 46.187H0V86.6014H29.5601V71.4174L13.3361 65.4128L29.5601 61.3721V46.188V46.187Z" fill="black"/>
<path d="M40.2435 81.0018V73.8433L55.7165 64.4319V81.0018H40.2435ZM61.6631 46.187H34.2969V52.0756H55.7165V57.7333L34.2969 71.3014V86.6014H61.6631V46.187Z" fill="black"/>
<path d="M97.0003 46.187H91.1116V80.6548H70.9619V46.187H65.0723V86.6014H97.0003V46.187Z" fill="black"/>
</svg>
