<svg width="97" height="87" viewBox="0 0 97 87" fill="none" xmlns="http://www.w3.org/2000/svg">
<path d="M6.92857 18.5328V5.71563H23.0365V11.5473L6.92857 18.5328ZM29.9641 0H0V40.4144H6.92857V24.4794L29.9651 15.415V0H29.9641Z" fill="white"/>
<path d="M40.1865 18.5908V5.94662H55.6015V11.1423L40.1865 18.5898V18.5908ZM61.3751 0H34.2979V40.4144H61.3751V34.4678H40.1865V24.4794L61.3751 15.299V0Z" fill="white"/>
<path d="M96.9998 0H65.0718V40.3564H70.9894V5.83164H78.0775V40.3564H83.877L83.819 5.83164H91.0241L91.0832 40.3564H96.9998V0Z" fill="white"/>
<path d="M6.81256 81.0018V67.0877L22.7476 75.1712V81.0029H6.81256V81.0018ZM6.81256 62.064V51.7877H22.7476V57.5033L6.81256 62.065V62.064ZM29.5601 46.187H0V86.6014H29.5601V71.4174L13.3361 65.4128L29.5601 61.3721V46.188V46.187Z" fill="white"/>
<path d="M40.2435 81.0018V73.8433L55.7165 64.4319V81.0018H40.2435ZM61.6631 46.187H34.2969V52.0756H55.7165V57.7333L34.2969 71.3014V86.6014H61.6631V46.187Z" fill="white"/>
<path d="M96.9998 46.187H91.1112V80.6548H70.9614V46.187H65.0718V86.6014H96.9998V46.187Z" fill="white"/>
</svg>
